<?xml version="1.0" encoding="utf-8"?>
<!-- Generator: Adobe Illustrator 24.0.1, SVG Export Plug-In . SVG Version: 6.00 Build 0)  -->
<svg version="1.1" id="Layer_1" xmlns="http://www.w3.org/2000/svg" xmlns:xlink="http://www.w3.org/1999/xlink" x="0px" y="0px"
	 viewBox="0 0 64.3 145.5" style="enable-background:new 0 0 64.3 145.5;" xml:space="preserve">
<style type="text/css">
	.st0{fill:none;stroke:#282829;stroke-width:1.474;stroke-miterlimit:10;}
	.st1{fill:#4D4D4F;}
	.st2{fill:#414042;}
	.st3{fill:#E6ACCE;}
	.st4{fill:#DE99C3;}
	.st5{fill:#282829;}
	.st6{fill:#383839;}
	.st7{fill:#CE90B7;}
</style>
<g>
	<g id="suspension_7_">
		<g>
			<line class="st0" x1="49.3" y1="35.2" x2="39.1" y2="42.5"/>
		</g>
		<g>
			<line class="st0" x1="14.9" y1="35.2" x2="25.1" y2="42.5"/>
		</g>
		<polyline class="st0" points="49,32.3 32.1,21.4 15.3,32.3 		"/>
	</g>
	<g>
		<path class="st0" d="M32.1,21.4"/>
		<path class="st0" d="M15,31.3"/>
	</g>
	<g>
		<path class="st0" d="M32.1,21.4"/>
		<path class="st0" d="M49.5,31.3"/>
	</g>
	<g>
		<polygon class="st1" points="32.1,30.6 32.1,36.9 9.7,36 9.7,30.6 		"/>
		<polygon class="st2" points="32.1,32.1 32.1,34.4 9.7,33.8 9.7,32.1 		"/>
		<polygon class="st1" points="32.1,30.6 32.1,36.9 54.6,36 54.6,30.6 		"/>
		<polygon class="st2" points="32.1,32.1 32.1,34.4 54.6,33.8 54.6,32.1 		"/>
	</g>
	<g>
		<polygon class="st3" points="7.6,13.9 7.6,3.4 32.1,3.4 32.1,20.2 21.8,13.9 		"/>
		<polygon class="st3" points="56.4,13.9 56.4,3.4 32.1,3.4 32.1,20.2 42.5,13.9 		"/>
		<path class="st3" d="M57.5,15.5L57.5,15.5c-0.5,0-1-0.4-1-1V2.8c0-0.5,0.4-1,1-1h0c0.5,0,1,0.4,1,1v11.7
			C58.4,15,58,15.5,57.5,15.5z"/>
		<path class="st3" d="M6.8,15.5L6.8,15.5c-0.5,0-1-0.4-1-1V2.8c0-0.5,0.4-1,1-1h0c0.5,0,1,0.4,1,1v11.7C7.8,15,7.3,15.5,6.8,15.5z"
			/>
	</g>
	<path class="st4" d="M54.6,136.5V125c0-23.3,2.8-34.1,2.8-42.8c0-4.2-2-7.4-9.2-8.2c-7.3-0.8-7.9-19.8-8.6-29.7
		c-0.7-9.9-2.4-31.2-2.8-36.8C36.5,1.9,35.2,0,32.1,0c-3.1,0-4.4,1.9-4.7,7.5c-0.3,5.5-2.1,26.9-2.8,36.8C24,54.2,23.3,73.1,16,73.9
		c-7.2,0.8-9.2,4-9.2,8.2c0,8.7,2.8,19.5,2.8,42.8v11.5H54.6z"/>
	<path class="st5" d="M38.3,84.1c0-6.2-0.9-19.2-5.7-19.2h-1c-4.8,0-5.7,13.1-5.7,19.2H38.3z"/>
	<path class="st3" d="M32.1,135.1c0,0,6.2-31.4,7.8-45.7c0.6-5.2-0.3-6.8-3.4-6.8h-9c-3,0-4,1.6-3.4,6.8
		C26,103.7,32.1,135.1,32.1,135.1z"/>
	<path class="st5" d="M32.1,83.4c1.1,0,1.9,1.3,1.9,3c0,2.6-0.9,3-1.9,3c-1.1,0-1.9-0.4-1.9-3C30.2,84.8,31.1,83.4,32.1,83.4z"/>
	<g id="wheels_7_">
		<g>
			<path class="st6" d="M2.1,24.7c0,0-0.6,3.4-0.6,8.6c0,5.2,0.6,8.6,0.6,8.6c0.2,1.2,1.4,2.1,2.6,2.1h8.2c1.2,0,2.3-1,2.3-2.2V24.8
				c0-1.2-1-2.2-2.3-2.2H4.7C3.5,22.6,2.3,23.5,2.1,24.7z"/>
			<path class="st2" d="M12.9,22.6H4.7c-0.5,0-1,0.2-1.5,0.5c-0.1,0.2-0.1,0.3-0.1,0.5c0,0-0.7,3.9-0.7,9.8c0,5.9,0.7,9.8,0.7,9.8
				c0,0.2,0.1,0.3,0.1,0.5c0.4,0.3,0.9,0.5,1.5,0.5h8.2c1.2,0,2.3-1,2.3-2.2V24.8C15.1,23.6,14.1,22.6,12.9,22.6z"/>
		</g>
		<g>
			<path class="st6" d="M62.2,24.7c0,0,0.6,3.4,0.6,8.6c0,5.2-0.6,8.6-0.6,8.6c-0.2,1.2-1.4,2.1-2.6,2.1h-8.2c-1.2,0-2.3-1-2.3-2.2
				V24.8c0-1.2,1-2.2,2.3-2.2h8.2C60.8,22.6,62,23.5,62.2,24.7z"/>
			<path class="st2" d="M51.4,22.6h8.2c0.5,0,1,0.2,1.5,0.5c0.1,0.2,0.1,0.3,0.1,0.5c0,0,0.7,3.9,0.7,9.8c0,5.9-0.7,9.8-0.7,9.8
				c0,0.2-0.1,0.3-0.1,0.5c-0.4,0.3-0.9,0.5-1.5,0.5h-8.2c-1.2,0-2.3-1-2.3-2.2V24.8C49.1,23.6,50.2,22.6,51.4,22.6z"/>
		</g>
		<g>
			<path class="st6" d="M0.6,120.5c0,0-0.6,3.4-0.6,8.6c0,5.2,0.6,8.6,0.6,8.6c0.2,1.2,1.4,2.1,2.6,2.1h8.2c1.2,0,2.3-1,2.3-2.2
				v-17.1c0-1.2-1-2.2-2.3-2.2H3.2C2,118.3,0.8,119.3,0.6,120.5z"/>
			<path class="st2" d="M11.4,118.3H3.2c-0.5,0-1,0.2-1.5,0.5c-0.1,0.2-0.1,0.3-0.1,0.5c0,0-0.7,3.9-0.7,9.8c0,5.9,0.7,9.8,0.7,9.8
				c0,0.2,0.1,0.3,0.1,0.5c0.4,0.3,0.9,0.5,1.5,0.5h8.2c1.2,0,2.3-1,2.3-2.2v-17.1C13.6,119.3,12.6,118.3,11.4,118.3z"/>
		</g>
		<g>
			<path class="st6" d="M63.7,120.5c0,0,0.6,3.4,0.6,8.6c0,5.2-0.6,8.6-0.6,8.6c-0.2,1.2-1.4,2.1-2.6,2.1h-8.2c-1.2,0-2.3-1-2.3-2.2
				v-17.1c0-1.2,1-2.2,2.3-2.2h8.2C62.3,118.3,63.5,119.3,63.7,120.5z"/>
			<path class="st2" d="M52.9,118.3h8.2c0.5,0,1,0.2,1.5,0.5c0.1,0.2,0.1,0.3,0.1,0.5c0,0,0.7,3.9,0.7,9.8c0,5.9-0.7,9.8-0.7,9.8
				c0,0.2-0.1,0.3-0.1,0.5c-0.4,0.3-0.9,0.5-1.5,0.5h-8.2c-1.2,0-2.3-1-2.3-2.2v-17.1C50.6,119.3,51.7,118.3,52.9,118.3z"/>
		</g>
	</g>
	<g>
		<rect x="14.7" y="131.2" class="st7" width="34.8" height="12.6"/>
		<path class="st3" d="M14.1,145.5c0-3.6,0-16.1,0-16.1h0.6v16.1H14.1z"/>
		<path class="st3" d="M50.2,145.5c0-3.6,0-16.1,0-16.1h-0.6v16.1H50.2z"/>
		<path class="st3" d="M49.6,131.2c0,0-5.2-1.8-17.4-1.8s-17.4,1.8-17.4,1.8"/>
	</g>
</g>
</svg>
