<?xml version="1.0" encoding="utf-8"?>
<!-- Generator: Adobe Illustrator 24.0.1, SVG Export Plug-In . SVG Version: 6.00 Build 0)  -->
<svg version="1.1" id="Layer_1" xmlns="http://www.w3.org/2000/svg" xmlns:xlink="http://www.w3.org/1999/xlink" x="0px" y="0px"
	 viewBox="0 0 190.4 104.3" style="enable-background:new 0 0 190.4 104.3;" xml:space="preserve">
<style type="text/css">
	.st0{fill:#BA2025;}
	.st1{fill:#FFFFFF;}
	.st2{fill:none;stroke:#BA2025;stroke-width:2;stroke-miterlimit:10;}
</style>
<polygon id="red_square" class="st0" points="117.5,53.7 13.8,53.7 20.8,14.7 124.4,14.7 "/>
<g id="formula">
	<path class="st1" d="M34,25.2h-4l-1.3,7.5h3.6l-0.4,2.4h-3.6l-1.7,9.7h-2.8l3.9-22h6.8L34,25.2z"/>
	<path class="st1" d="M41.4,43l-2.1,1.7h-4.8L33.1,43l3.2-18.5l2.1-1.7h4.8l1.4,1.7L41.4,43z M39.6,25.2l-0.7,0.6l-2.8,16.1l0.5,0.6
		h1.6l0.7-0.6l2.8-16.1l-0.5-0.6H39.6z"/>
	<path class="st1" d="M47.8,22.8h6.4l1.4,1.7l-1.6,9.1l-1.8,1.5l0.1,9.6h-2.7l-0.1-9.4h-1.2l-1.6,9.4H44L47.8,22.8z M51.5,32.6
		l1.2-6.9l-0.5-0.6h-2l-1.4,8h2L51.5,32.6z"/>
	<path class="st1" d="M59.8,44.8l0.9-17.2l-3,17.2h-2.5l3.9-22h4l-1.1,17.7l5.2-17.7h4.1l-3.9,22h-2.6l3-17.2l-5.2,17.2H59.8z"/>
	<path class="st1" d="M76.6,44.8H72L70.6,43l3.6-20.2h2.8l-3.4,19l0.5,0.6h1.4l0.7-0.6l3.4-19h2.8L78.7,43L76.6,44.8z"/>
	<path class="st1" d="M81.3,44.8l3.9-22h2.8l-3.5,19.6h3.7l-0.4,2.4H81.3z"/>
	<path class="st1" d="M98.6,44.8h-2.9l0.5-5.7h-2.6l-1.5,5.7h-2.8l6.5-22h4L98.6,44.8z M97.3,25.7l-3,11.1h2.1L97.3,25.7z"/>
	<path class="st1" d="M111,25.2h-1.9l0.4-2.4h4.7l-3.9,22h-2.8L111,25.2z"/>
</g>
<g id="_x32_018">
	<path class="st1" d="M128.2,34.4l2.1-1.7h2.5l0.7-0.6l1.1-6.3l-0.5-0.6h-0.9l-0.7,0.6l-0.5,2.7h-2.8l0.7-3.9l2.1-1.7h4.1l1.4,1.7
		l-1.5,8.8l-2.1,1.7h-2.5l-0.7,0.6l-1.2,6.8h4.7l-0.4,2.4h-7.5L128.2,34.4z"/>
	<path class="st1" d="M144.8,43l-2.1,1.7h-4.5l-1.4-1.7l3.2-18.5l2.1-1.7h4.5l1.4,1.7L144.8,43z M143.3,25.2l-0.7,0.6l-2.8,16.1
		l0.5,0.6h1.3l0.7-0.6l2.8-16.1l-0.5-0.6H143.3z"/>
	<path class="st1" d="M152,25.2H150l0.4-2.4h4.7l-3.9,22h-2.8L152,25.2z"/>
	<path class="st1" d="M164.3,31.9l-2.1,1.7l1.4,1.7l-1.4,7.7l-2.1,1.7h-4.5l-1.4-1.7l1.4-7.7l2-1.7l-1.4-1.7l1.3-7.3l2.1-1.7h4.5
		l1.4,1.7L164.3,31.9z M159.2,34.8l-0.7,0.6l-1.1,6.5l0.5,0.6h1.3l0.7-0.6l1.1-6.5l-0.5-0.6H159.2z M160.9,25.2l-0.7,0.6l-1.1,6.1
		l0.5,0.6h1.3l0.7-0.6l1.1-6.1l-0.5-0.6H160.9z"/>
</g>
<polygon id="rectangle" class="st2" points="177.4,67.4 1.2,67.4 13,1 189.2,1 "/>
<g id="driver_standings">
	<path class="st1" d="M24.6,84.1l-3.2,18.5l-2.1,1.7h-6.5l3.9-22h6.5L24.6,84.1z M18.8,101.4l2.8-16.1l-0.5-0.6h-2.1L16,101.9h2.1
		L18.8,101.4z"/>
	<path class="st1" d="M27.8,82.3h6.4l1.4,1.7L34,93.2l-1.8,1.5l0.1,9.6h-2.7l-0.1-9.4h-1.2l-1.6,9.4h-2.8L27.8,82.3z M31.4,92.1
		l1.2-6.9l-0.5-0.6h-2l-1.4,8h2L31.4,92.1z"/>
	<path class="st1" d="M39,82.3h2.8l-3.9,22h-2.8L39,82.3z"/>
	<path class="st1" d="M42.6,104.3l1.4-22h2.7L45.2,101l5.1-18.7h2.6l-6.4,22H42.6z"/>
	<path class="st1" d="M55.1,82.3H62l-0.4,2.4h-4.1L56.2,92h3.6l-0.4,2.4h-3.6l-1.4,7.6h4.1l-0.4,2.4h-6.9L55.1,82.3z"/>
	<path class="st1" d="M64.6,82.3H71l1.4,1.7l-1.6,9.1L69,94.7l0.1,9.6h-2.7l-0.1-9.4h-1.2l-1.6,9.4h-2.8L64.6,82.3z M68.2,92.1
		l1.2-6.9l-0.5-0.6h-2l-1.4,8h2L68.2,92.1z"/>
	<path class="st1" d="M85.6,85.2l-0.5-0.6h-1l-0.7,0.6l-1.1,6.2l0.5,0.6h2.7l1.4,1.7l-1.6,8.8l-2.1,1.7H79l-1.4-1.7l0.8-4.6h2.8
		l-0.6,3.4L81,102h1.2l0.7-0.6l1.1-6.5l-0.5-0.6h-2.7l-1.4-1.7l1.5-8.5l2.1-1.7h4.2l1.4,1.7l-0.8,4.6H85L85.6,85.2z"/>
	<path class="st1" d="M95.8,84.7l-3.5,19.6h-2.8l3.5-19.6h-2.6l0.4-2.3h8l-0.4,2.3H95.8z"/>
	<path class="st1" d="M104.4,104.3h-2.9l0.5-5.7h-2.6l-1.5,5.7h-2.8l6.5-22h4L104.4,104.3z M103.1,85.2l-3,11.1h2.1L103.1,85.2z"/>
	<path class="st1" d="M110.5,82.3h3l0.5,15.2l2.7-15.2h2.5l-3.9,22h-3l-0.5-15l-2.7,15h-2.5L110.5,82.3z"/>
	<path class="st1" d="M130.1,84.1l-3.2,18.5l-2.1,1.7h-6.5l3.9-22h6.5L130.1,84.1z M124.3,101.4l2.8-16.1l-0.5-0.6h-2.1l-3.1,17.2
		h2.1L124.3,101.4z"/>
	<path class="st1" d="M133.3,82.3h2.8l-3.9,22h-2.8L133.3,82.3z"/>
	<path class="st1" d="M139,82.3h3l0.5,15.2l2.7-15.2h2.5l-3.9,22h-3l-0.5-15l-2.7,15h-2.5L139,82.3z"/>
	<path class="st1" d="M150.2,84.1l2.1-1.7h4.5l1.4,1.7l-0.8,4.7h-2.8l0.6-3.4l-0.5-0.6h-1.3l-0.7,0.6l-2.8,16.1l0.5,0.6h1.3l0.7-0.6
		l1.1-6h-1.4l0.4-2.5h4.2l-1.7,9.7l-2.1,1.7h-4.5l-1.4-1.7L150.2,84.1z"/>
	<path class="st1" d="M165.6,85.2l-0.5-0.6h-1l-0.7,0.6l-1.1,6.2l0.5,0.6h2.7l1.4,1.7l-1.6,8.8l-2.1,1.7h-4.4l-1.4-1.7l0.8-4.6h2.8
		l-0.6,3.4l0.5,0.6h1.2l0.7-0.6l1.1-6.5l-0.5-0.6h-2.7l-1.4-1.7l1.5-8.5l2.1-1.7h4.2l1.4,1.7l-0.8,4.6H165L165.6,85.2z"/>
</g>
</svg>
